<svg width="140" height="24" viewBox="0 0 140 24" fill="none" xmlns="http://www.w3.org/2000/svg">
<path d="M8.97656 1.80469V0.339844H11.9766V5.68359H8.97656C8.85156 4.82422 8.57031 4.17969 8.13281 3.75C7.70312 3.3125 7.14453 3.09375 6.45703 3.09375C5.97266 3.09375 5.55859 3.23047 5.21484 3.50391C4.87109 3.77734 4.69922 4.12109 4.69922 4.53516C4.69922 4.90234 4.80859 5.21875 5.02734 5.48438C5.24609 5.75 5.52734 5.97656 5.87109 6.16406C6.21484 6.34375 6.73047 6.58594 7.41797 6.89062L8.13281 7.19531C9.6875 7.86719 10.8594 8.65625 11.6484 9.5625C12.4453 10.4688 12.8438 11.6016 12.8438 12.9609C12.8438 14.5781 12.3789 15.8594 11.4492 16.8047C10.5195 17.7422 9.26953 18.2109 7.69922 18.2109C6.16797 18.2109 4.97656 17.6367 4.125 16.4883V18H1.125V12H4.125C4.1875 13.0391 4.45312 13.832 4.92188 14.3789C5.39844 14.918 6.03906 15.1875 6.84375 15.1875C7.38281 15.1875 7.83594 15.0039 8.20312 14.6367C8.57812 14.2695 8.76562 13.8242 8.76562 13.3008C8.76562 12.7695 8.55078 12.2852 8.12109 11.8477C7.69922 11.4023 6.97656 10.957 5.95312 10.5117C4.21094 9.74609 2.94531 8.92188 2.15625 8.03906C1.375 7.15625 0.984375 6.14062 0.984375 4.99219C0.984375 4.09375 1.19141 3.27344 1.60547 2.53125C2.01953 1.78906 2.58984 1.20703 3.31641 0.785156C4.05078 0.355469 4.84766 0.140625 5.70703 0.140625C6.39453 0.140625 7.01953 0.28125 7.58203 0.5625C8.14453 0.84375 8.60938 1.25781 8.97656 1.80469ZM20.5742 5.68359V8.56641H18.3008V13.9453C18.3008 14.3281 18.375 14.6172 18.5234 14.8125C18.6719 15 18.9492 15.0938 19.3555 15.0938C19.6914 15.0938 20.0977 15.0078 20.5742 14.8359V17.5664C19.5195 17.9805 18.5273 18.1875 17.5977 18.1875C16.5273 18.1875 15.7227 17.918 15.1836 17.3789C14.6523 16.832 14.3867 16.0625 14.3867 15.0703V8.56641H12.8281V5.68359H14.3867V3.77344L18.3008 0.960938V5.68359H20.5742ZM32.8867 10.6055V15.1641H34.8789V18H28.9727V17.0391C27.8555 17.8047 26.7383 18.1875 25.6211 18.1875C24.2695 18.1875 23.1875 17.8398 22.375 17.1445C21.5625 16.4492 21.1562 15.5117 21.1562 14.332C21.1562 13.082 21.6094 12.082 22.5156 11.332C23.4297 10.5742 24.6406 10.1953 26.1484 10.1953C26.6719 10.1953 27.1367 10.2539 27.543 10.3711C27.957 10.4805 28.4336 10.6719 28.9727 10.9453V9.96094C28.9727 9.33594 28.7773 8.83594 28.3867 8.46094C27.9961 8.08594 27.4102 7.89844 26.6289 7.89844C25.7773 7.89844 25.0234 8.22656 24.3672 8.88281L21.2031 8.30859C22.1641 6.37109 24.1484 5.40234 27.1562 5.40234C29.2188 5.40234 30.6875 5.82812 31.5625 6.67969C32.4453 7.52344 32.8867 8.83203 32.8867 10.6055ZM26.5 15.7383C27.2031 15.7383 28.0273 15.3164 28.9727 14.4727V13.3711C28.1289 12.8242 27.3555 12.5508 26.6523 12.5508C26.0898 12.5508 25.6602 12.6836 25.3633 12.9492C25.0664 13.2148 24.918 13.5938 24.918 14.0859C24.918 15.1875 25.4453 15.7383 26.5 15.7383ZM42.1758 5.68359V8.56641H39.9023V13.9453C39.9023 14.3281 39.9766 14.6172 40.125 14.8125C40.2734 15 40.5508 15.0938 40.957 15.0938C41.293 15.0938 41.6992 15.0078 42.1758 14.8359V17.5664C41.1211 17.9805 40.1289 18.1875 39.1992 18.1875C38.1289 18.1875 37.3242 17.918 36.7852 17.3789C36.2539 16.832 35.9883 16.0625 35.9883 15.0703V8.56641H34.4297V5.68359H35.9883V3.77344L39.9023 0.960938V5.68359H42.1758ZM50.2695 6.11719V5.68359H53.0703V9.29297H50.2695C50.0273 8.42578 49.1289 7.99219 47.5742 7.99219C46.457 7.99219 45.8984 8.30469 45.8984 8.92969C45.8984 9.20312 46.0469 9.40625 46.3438 9.53906C46.6406 9.67188 47.0742 9.78125 47.6445 9.86719C49.2461 10.0703 50.5078 10.3633 51.4297 10.7461C52.3516 11.1211 52.9961 11.5898 53.3633 12.1523C53.7305 12.707 53.9141 13.3828 53.9141 14.1797C53.9141 15.4766 53.4688 16.4883 52.5781 17.2148C51.6953 17.9336 50.4922 18.293 48.9688 18.293C47.4844 18.293 46.4766 17.9961 45.9453 17.4023V18H43.0859V13.7578H45.9453C46.0234 14.3438 46.3047 14.8047 46.7891 15.1406C47.2812 15.4766 47.8867 15.6445 48.6055 15.6445C49.3086 15.6445 49.8281 15.5664 50.1641 15.4102C50.5 15.2461 50.668 14.9648 50.668 14.5664C50.668 14.293 50.5977 14.082 50.457 13.9336C50.3164 13.7773 50.043 13.6406 49.6367 13.5234C49.2383 13.4062 48.625 13.2734 47.7969 13.125C45.9531 12.8359 44.625 12.3711 43.8125 11.7305C43.0078 11.082 42.6055 10.2109 42.6055 9.11719C42.6055 8 43.0234 7.12109 43.8594 6.48047C44.7031 5.83984 45.8125 5.51953 47.1875 5.51953C48.2969 5.51953 49.3242 5.71875 50.2695 6.11719ZM69.3906 1.69922V0.339844H72.3906V6.55078H69.3906C68.5078 4.30859 67.0352 3.1875 64.9727 3.1875C63.9492 3.1875 63.0391 3.45313 62.2422 3.98438C61.4531 4.51562 60.8359 5.24219 60.3906 6.16406C59.9531 7.07812 59.7344 8.09375 59.7344 9.21094C59.7344 10.2578 59.9414 11.2188 60.3555 12.0938C60.7773 12.9609 61.3633 13.6562 62.1133 14.1797C62.8633 14.6953 63.7266 14.9531 64.7031 14.9531C65.9062 14.9531 66.9492 14.5391 67.832 13.7109C68.7227 12.875 69.3203 11.7773 69.625 10.418L73.1055 12.0703C71.793 16.1641 68.8828 18.2109 64.375 18.2109C62.4375 18.2109 60.7422 17.8398 59.2891 17.0977C57.8438 16.3555 56.7305 15.3008 55.9492 13.9336C55.168 12.5664 54.7773 10.9688 54.7773 9.14062C54.7773 7.41406 55.1797 5.85938 55.9844 4.47656C56.7891 3.09375 57.8984 2.01172 59.3125 1.23047C60.7344 0.441406 62.3242 0.046875 64.082 0.046875C66.2148 0.046875 67.9844 0.597656 69.3906 1.69922ZM79.1602 8.56641L81.2227 14.0625L83.4023 8.56641H81.7969V5.68359H88.2773V8.56641H86.4961L80.625 23.543H76.3242V20.707H78.6797L79.4883 18.5273L75.0234 8.56641H73.2305V5.68359H80.625V8.56641H79.1602ZM101.82 7.19531C103.422 6.07812 105.078 5.51953 106.789 5.51953C107.797 5.51953 108.602 5.67578 109.203 5.98828C109.805 6.30078 110.246 6.80859 110.527 7.51172C110.809 8.21484 110.949 9.16016 110.949 10.3477V15.1641H112.988V18H107.012V10.7227C107.012 9.49609 106.457 8.88281 105.348 8.88281C104.551 8.88281 103.609 9.15234 102.523 9.69141V15.1641H104.539V18H98.5859V10.8516C98.5859 9.53906 98.0508 8.88281 96.9805 8.88281C96.2227 8.88281 95.2773 9.15234 94.1445 9.69141V15.1641H96.1602V18H88.1914V15.1641H90.207V8.56641H88.1914V5.68359H94.1445V6.71484C95.4414 5.91797 96.7695 5.51953 98.1289 5.51953C99.7148 5.51953 100.945 6.07812 101.82 7.19531ZM123.777 5.54297V9.23438C122.699 9.30469 121.84 9.47656 121.199 9.75C120.566 10.0156 120.074 10.4766 119.723 11.1328C119.379 11.7891 119.207 12.7266 119.207 13.9453V15.1641H121.656V18H113.02V15.1641H115.281V8.56641H113.137V5.68359H118.879V8.8125C119.168 7.86719 119.703 7.08203 120.484 6.45703C121.266 5.83203 122.234 5.51953 123.391 5.51953C123.562 5.51953 123.691 5.52734 123.777 5.54297ZM131.262 14.9531C131.934 14.9531 132.66 14.6562 133.441 14.0625V8.56641H131.555V5.68359H137.355V15.1641H139.371V18H133.441V16.9688C132.215 17.7812 131.023 18.1875 129.867 18.1875C128.672 18.1875 127.742 17.8555 127.078 17.1914C126.414 16.5273 126.082 15.6133 126.082 14.4492V8.56641H124.23V5.68359H129.973V13.4414C129.973 14.0195 130.062 14.418 130.242 14.6367C130.43 14.8477 130.77 14.9531 131.262 14.9531Z" fill="#1F1F1F"/>
</svg>
