<svg width="42" height="34" xmlns="http://www.w3.org/2000/svg"><g fill="none" fill-rule="evenodd"><path fill="#0360A6" d="M0 15h42v19H0z"/><path d="M17.76 28.19c-.28.36-.59.612-.93.755a2.63 2.63 0 0 1-1.03.215 3.661 3.661 0 0 1-1.475-.285 3.16 3.16 0 0 1-1.105-.785c-.3-.333-.53-.725-.69-1.175-.16-.45-.24-.935-.24-1.455 0-.533.08-1.028.24-1.485.16-.457.39-.855.69-1.195.3-.34.668-.607 1.105-.8.437-.193.928-.29 1.475-.29.367 0 .722.055 1.065.165.343.11.653.272.93.485.277.213.505.477.685.79.18.313.29.673.33 1.08h-1.5c-.093-.4-.273-.7-.54-.9-.267-.2-.59-.3-.97-.3-.353 0-.653.068-.9.205a1.7 1.7 0 0 0-.6.55 2.41 2.41 0 0 0-.335.785c-.07.293-.105.597-.105.91 0 .3.035.592.105.875.07.283.182.538.335.765.153.227.353.408.6.545.247.137.547.205.9.205.52 0 .922-.132 1.205-.395.283-.263.448-.645.495-1.145h-1.58v-1.17h3V29h-1l-.16-.81zm3.93-6.33h2.21l1.67 4.91h.02l1.58-4.91h2.21V29h-1.47v-5.06h-.02L26.14 29h-1.21l-1.75-5.01h-.02V29h-1.47v-7.14zm10.57 0h1.57v5.82h3.48V29h-5.05v-7.14z" fill="#FFF"/><path fill="#CFCFCE" d="M14 0v15h3V3.167h22V15h3V0z"/><g fill="#EEECEA"><path d="M24.107 14.198l-5.091-5.091L19 9.09 24.091 4l1.572 1.571-3.519 3.52 3.534 3.536-1.571 1.571zM32.091 4l5.091 5.091.016.016-5.091 5.091-1.571-1.571 3.518-3.52L30.52 5.57 32.09 4z"/></g></g></svg>