<svg width="42" height="34" xmlns="http://www.w3.org/2000/svg"><g fill="none" fill-rule="evenodd"><path fill="#0360A6" d="M0 15h42v19H0z"/><path d="M10.63 26.75c0 .233-.023.49-.07.77a1.94 1.94 0 0 1-.32.785 1.93 1.93 0 0 1-.72.61c-.313.163-.737.245-1.27.245-.3 0-.59-.042-.87-.125a2.176 2.176 0 0 1-.75-.39 1.932 1.932 0 0 1-.53-.68c-.133-.277-.2-.612-.2-1.005v-.62h1.42v.32c0 .173.013.333.04.48.027.147.073.272.14.375a.701.701 0 0 0 .275.245c.117.06.268.09.455.09.207 0 .367-.037.48-.11a.631.631 0 0 0 .245-.285c.05-.117.08-.243.09-.38.01-.137.015-.268.015-.395v-4.82h1.57v4.89zm3.95-.12c0 .24.043.443.13.61.087.167.202.302.345.405.143.103.312.18.505.23.193.05.393.075.6.075.14 0 .29-.012.45-.035.16-.023.31-.068.45-.135a.982.982 0 0 0 .35-.275.69.69 0 0 0 .14-.445.626.626 0 0 0-.185-.47 1.467 1.467 0 0 0-.485-.3 4.84 4.84 0 0 0-.68-.21c-.253-.06-.51-.127-.77-.2a6.837 6.837 0 0 1-.78-.245 2.68 2.68 0 0 1-.68-.375 1.766 1.766 0 0 1-.485-.575c-.123-.23-.185-.508-.185-.835 0-.367.078-.685.235-.955a2.13 2.13 0 0 1 .615-.675c.253-.18.54-.313.86-.4.32-.087.64-.13.96-.13.373 0 .732.042 1.075.125.343.083.648.218.915.405.267.187.478.425.635.715.157.29.235.642.235 1.055h-1.52a1.262 1.262 0 0 0-.135-.53.883.883 0 0 0-.305-.33 1.29 1.29 0 0 0-.435-.17 2.678 2.678 0 0 0-.535-.05 1.84 1.84 0 0 0-.38.04 1.016 1.016 0 0 0-.345.14.868.868 0 0 0-.255.25c-.067.1-.1.227-.1.38 0 .14.027.253.08.34.053.087.158.167.315.24.157.073.373.147.65.22.277.073.638.167 1.085.28.133.027.318.075.555.145.237.07.472.182.705.335.233.153.435.358.605.615.17.257.255.585.255.985 0 .327-.063.63-.19.91s-.315.522-.565.725c-.25.203-.56.362-.93.475-.37.113-.798.17-1.285.17a4.51 4.51 0 0 1-1.145-.145 2.88 2.88 0 0 1-.98-.455 2.248 2.248 0 0 1-.675-.79c-.167-.32-.247-.7-.24-1.14h1.52zm8.18-1.17c0 .3.035.592.105.875.07.283.182.538.335.765.153.227.353.408.6.545.247.137.547.205.9.205s.653-.068.9-.205c.247-.137.447-.318.6-.545.153-.227.265-.482.335-.765.07-.283.105-.575.105-.875 0-.313-.035-.617-.105-.91a2.41 2.41 0 0 0-.335-.785 1.7 1.7 0 0 0-.6-.55c-.247-.137-.547-.205-.9-.205s-.653.068-.9.205a1.7 1.7 0 0 0-.6.55 2.41 2.41 0 0 0-.335.785c-.07.293-.105.597-.105.91zm-1.57 0c0-.533.08-1.028.24-1.485.16-.457.39-.855.69-1.195.3-.34.668-.607 1.105-.8.437-.193.928-.29 1.475-.29.553 0 1.047.097 1.48.29.433.193.8.46 1.1.8.3.34.53.738.69 1.195.16.457.24.952.24 1.485 0 .52-.08 1.005-.24 1.455-.16.45-.39.842-.69 1.175-.3.333-.667.595-1.1.785-.433.19-.927.285-1.48.285a3.661 3.661 0 0 1-1.475-.285 3.16 3.16 0 0 1-1.105-.785c-.3-.333-.53-.725-.69-1.175-.16-.45-.24-.935-.24-1.455zm9.59-3.6h1.56l2.98 4.79h.02v-4.79h1.47V29h-1.57l-2.97-4.78h-.02V29h-1.47v-7.14z" fill="#FFF"/><path fill="#CFCFCE" d="M14 0v15h3V3.167h22V15h3V0z"/><g fill="#EEECEA"><path d="M24.107 14.198l-5.091-5.091L19 9.09 24.091 4l1.572 1.571-3.519 3.52 3.534 3.536-1.571 1.571zM32.091 4l5.091 5.091.016.016-5.091 5.091-1.571-1.571 3.518-3.52L30.52 5.57 32.09 4z"/></g></g></svg>