<svg width="123" height="19" viewBox="0 0 123 19" fill="none" xmlns="http://www.w3.org/2000/svg">
<path d="M8.97656 1.80469V0.339844H11.9766V5.68359H8.97656C8.85156 4.82422 8.57031 4.17969 8.13281 3.75C7.70312 3.3125 7.14453 3.09375 6.45703 3.09375C5.97266 3.09375 5.55859 3.23047 5.21484 3.50391C4.87109 3.77734 4.69922 4.12109 4.69922 4.53516C4.69922 4.90234 4.80859 5.21875 5.02734 5.48438C5.24609 5.75 5.52734 5.97656 5.87109 6.16406C6.21484 6.34375 6.73047 6.58594 7.41797 6.89062L8.13281 7.19531C9.6875 7.86719 10.8594 8.65625 11.6484 9.5625C12.4453 10.4688 12.8438 11.6016 12.8438 12.9609C12.8438 14.5781 12.3789 15.8594 11.4492 16.8047C10.5195 17.7422 9.26953 18.2109 7.69922 18.2109C6.16797 18.2109 4.97656 17.6367 4.125 16.4883V18H1.125V12H4.125C4.1875 13.0391 4.45312 13.832 4.92188 14.3789C5.39844 14.918 6.03906 15.1875 6.84375 15.1875C7.38281 15.1875 7.83594 15.0039 8.20312 14.6367C8.57812 14.2695 8.76562 13.8242 8.76562 13.3008C8.76562 12.7695 8.55078 12.2852 8.12109 11.8477C7.69922 11.4023 6.97656 10.957 5.95312 10.5117C4.21094 9.74609 2.94531 8.92188 2.15625 8.03906C1.375 7.15625 0.984375 6.14062 0.984375 4.99219C0.984375 4.09375 1.19141 3.27344 1.60547 2.53125C2.01953 1.78906 2.58984 1.20703 3.31641 0.785156C4.05078 0.355469 4.84766 0.140625 5.70703 0.140625C6.39453 0.140625 7.01953 0.28125 7.58203 0.5625C8.14453 0.84375 8.60938 1.25781 8.97656 1.80469ZM20.5742 5.68359V8.56641H18.3008V13.9453C18.3008 14.3281 18.375 14.6172 18.5234 14.8125C18.6719 15 18.9492 15.0938 19.3555 15.0938C19.6914 15.0938 20.0977 15.0078 20.5742 14.8359V17.5664C19.5195 17.9805 18.5273 18.1875 17.5977 18.1875C16.5273 18.1875 15.7227 17.918 15.1836 17.3789C14.6523 16.832 14.3867 16.0625 14.3867 15.0703V8.56641H12.8281V5.68359H14.3867V3.77344L18.3008 0.960938V5.68359H20.5742ZM32.8867 10.6055V15.1641H34.8789V18H28.9727V17.0391C27.8555 17.8047 26.7383 18.1875 25.6211 18.1875C24.2695 18.1875 23.1875 17.8398 22.375 17.1445C21.5625 16.4492 21.1562 15.5117 21.1562 14.332C21.1562 13.082 21.6094 12.082 22.5156 11.332C23.4297 10.5742 24.6406 10.1953 26.1484 10.1953C26.6719 10.1953 27.1367 10.2539 27.543 10.3711C27.957 10.4805 28.4336 10.6719 28.9727 10.9453V9.96094C28.9727 9.33594 28.7773 8.83594 28.3867 8.46094C27.9961 8.08594 27.4102 7.89844 26.6289 7.89844C25.7773 7.89844 25.0234 8.22656 24.3672 8.88281L21.2031 8.30859C22.1641 6.37109 24.1484 5.40234 27.1562 5.40234C29.2188 5.40234 30.6875 5.82812 31.5625 6.67969C32.4453 7.52344 32.8867 8.83203 32.8867 10.6055ZM26.5 15.7383C27.2031 15.7383 28.0273 15.3164 28.9727 14.4727V13.3711C28.1289 12.8242 27.3555 12.5508 26.6523 12.5508C26.0898 12.5508 25.6602 12.6836 25.3633 12.9492C25.0664 13.2148 24.918 13.5938 24.918 14.0859C24.918 15.1875 25.4453 15.7383 26.5 15.7383ZM42.1758 5.68359V8.56641H39.9023V13.9453C39.9023 14.3281 39.9766 14.6172 40.125 14.8125C40.2734 15 40.5508 15.0938 40.957 15.0938C41.293 15.0938 41.6992 15.0078 42.1758 14.8359V17.5664C41.1211 17.9805 40.1289 18.1875 39.1992 18.1875C38.1289 18.1875 37.3242 17.918 36.7852 17.3789C36.2539 16.832 35.9883 16.0625 35.9883 15.0703V8.56641H34.4297V5.68359H35.9883V3.77344L39.9023 0.960938V5.68359H42.1758ZM50.2695 6.11719V5.68359H53.0703V9.29297H50.2695C50.0273 8.42578 49.1289 7.99219 47.5742 7.99219C46.457 7.99219 45.8984 8.30469 45.8984 8.92969C45.8984 9.20312 46.0469 9.40625 46.3438 9.53906C46.6406 9.67188 47.0742 9.78125 47.6445 9.86719C49.2461 10.0703 50.5078 10.3633 51.4297 10.7461C52.3516 11.1211 52.9961 11.5898 53.3633 12.1523C53.7305 12.707 53.9141 13.3828 53.9141 14.1797C53.9141 15.4766 53.4688 16.4883 52.5781 17.2148C51.6953 17.9336 50.4922 18.293 48.9688 18.293C47.4844 18.293 46.4766 17.9961 45.9453 17.4023V18H43.0859V13.7578H45.9453C46.0234 14.3438 46.3047 14.8047 46.7891 15.1406C47.2812 15.4766 47.8867 15.6445 48.6055 15.6445C49.3086 15.6445 49.8281 15.5664 50.1641 15.4102C50.5 15.2461 50.668 14.9648 50.668 14.5664C50.668 14.293 50.5977 14.082 50.457 13.9336C50.3164 13.7773 50.043 13.6406 49.6367 13.5234C49.2383 13.4062 48.625 13.2734 47.7969 13.125C45.9531 12.8359 44.625 12.3711 43.8125 11.7305C43.0078 11.082 42.6055 10.2109 42.6055 9.11719C42.6055 8 43.0234 7.12109 43.8594 6.48047C44.7031 5.83984 45.8125 5.51953 47.1875 5.51953C48.2969 5.51953 49.3242 5.71875 50.2695 6.11719ZM59.6172 3.33984L62.4766 11.8125L65.1836 3.33984H63.5547V0.339844H69.918V3.33984H68.2891L71.1836 11.8125L73.9727 3.33984H72.1914V0.339844H79.2812V3.33984H77.3594L72.4609 18.0938H69.1914L66.4141 10.0312L63.7773 18.0938H60.3906L55.3516 3.33984H53.4766V0.339844H61.4453V3.33984H59.6172ZM88.418 10.6055V15.1641H90.4102V18H84.5039V17.0391C83.3867 17.8047 82.2695 18.1875 81.1523 18.1875C79.8008 18.1875 78.7188 17.8398 77.9062 17.1445C77.0938 16.4492 76.6875 15.5117 76.6875 14.332C76.6875 13.082 77.1406 12.082 78.0469 11.332C78.9609 10.5742 80.1719 10.1953 81.6797 10.1953C82.2031 10.1953 82.668 10.2539 83.0742 10.3711C83.4883 10.4805 83.9648 10.6719 84.5039 10.9453V9.96094C84.5039 9.33594 84.3086 8.83594 83.918 8.46094C83.5273 8.08594 82.9414 7.89844 82.1602 7.89844C81.3086 7.89844 80.5547 8.22656 79.8984 8.88281L76.7344 8.30859C77.6953 6.37109 79.6797 5.40234 82.6875 5.40234C84.75 5.40234 86.2188 5.82812 87.0938 6.67969C87.9766 7.52344 88.418 8.83203 88.418 10.6055ZM82.0312 15.7383C82.7344 15.7383 83.5586 15.3164 84.5039 14.4727V13.3711C83.6602 12.8242 82.8867 12.5508 82.1836 12.5508C81.6211 12.5508 81.1914 12.6836 80.8945 12.9492C80.5977 13.2148 80.4492 13.5938 80.4492 14.0859C80.4492 15.1875 80.9766 15.7383 82.0312 15.7383ZM98.0469 15.1641V18H90.4414V15.1641H92.3633V3.16406H90.4414V0.339844H96.3008V15.1641H98.0469ZM111.016 12.668H101.828C101.922 13.6133 102.246 14.3633 102.801 14.918C103.363 15.4648 104.086 15.7383 104.969 15.7383C105.945 15.7383 106.898 15.2539 107.828 14.2852L110.875 15.2695C110.203 16.2773 109.371 17.0352 108.379 17.543C107.387 18.043 106.211 18.293 104.852 18.293C103.492 18.293 102.289 18.0391 101.242 17.5312C100.203 17.0156 99.3945 16.2891 98.8164 15.3516C98.2461 14.4141 97.9609 13.3125 97.9609 12.0469C97.9609 10.7969 98.2578 9.66406 98.8516 8.64844C99.4531 7.63281 100.262 6.83984 101.277 6.26953C102.301 5.69141 103.41 5.40234 104.605 5.40234C105.902 5.40234 107.031 5.70313 107.992 6.30469C108.953 6.89844 109.691 7.74609 110.207 8.84766C110.73 9.94141 111 11.2148 111.016 12.668ZM104.418 8.01562C103.715 8.01562 103.148 8.21875 102.719 8.625C102.297 9.03125 102.031 9.65234 101.922 10.4883H107.055C106.945 9.75391 106.645 9.16016 106.152 8.70703C105.668 8.24609 105.09 8.01562 104.418 8.01562ZM118.98 6.11719V5.68359H121.781V9.29297H118.98C118.738 8.42578 117.84 7.99219 116.285 7.99219C115.168 7.99219 114.609 8.30469 114.609 8.92969C114.609 9.20312 114.758 9.40625 115.055 9.53906C115.352 9.67188 115.785 9.78125 116.355 9.86719C117.957 10.0703 119.219 10.3633 120.141 10.7461C121.062 11.1211 121.707 11.5898 122.074 12.1523C122.441 12.707 122.625 13.3828 122.625 14.1797C122.625 15.4766 122.18 16.4883 121.289 17.2148C120.406 17.9336 119.203 18.293 117.68 18.293C116.195 18.293 115.188 17.9961 114.656 17.4023V18H111.797V13.7578H114.656C114.734 14.3438 115.016 14.8047 115.5 15.1406C115.992 15.4766 116.598 15.6445 117.316 15.6445C118.02 15.6445 118.539 15.5664 118.875 15.4102C119.211 15.2461 119.379 14.9648 119.379 14.5664C119.379 14.293 119.309 14.082 119.168 13.9336C119.027 13.7773 118.754 13.6406 118.348 13.5234C117.949 13.4062 117.336 13.2734 116.508 13.125C114.664 12.8359 113.336 12.3711 112.523 11.7305C111.719 11.082 111.316 10.2109 111.316 9.11719C111.316 8 111.734 7.12109 112.57 6.48047C113.414 5.83984 114.523 5.51953 115.898 5.51953C117.008 5.51953 118.035 5.71875 118.98 6.11719Z" fill="#1F1F1F"/>
</svg>
